<?xml version="1.0" encoding="utf-8"?>
<!-- Generator: Adobe Illustrator 16.0.0, SVG Export Plug-In . SVG Version: 6.00 Build 0)  -->
<!DOCTYPE svg PUBLIC "-//W3C//DTD SVG 1.1//EN" "http://www.w3.org/Graphics/SVG/1.1/DTD/svg11.dtd">
<svg version="1.1" id="Layer_1" xmlns="http://www.w3.org/2000/svg" xmlns:xlink="http://www.w3.org/1999/xlink" x="0px" y="0px"
	 width="150px" height="40px" viewBox="0 0 150 40" enable-background="new 0 0 150 40" xml:space="preserve">
<path fill="#5591CD" d="M49.565,8.743h-3.886l-8.223,22.592h3.027l1.537-4.202h11.16l1.581,4.202h2.982L49.565,8.743 M52.186,24.286
	h-9.172l4.563-12.606L52.186,24.286 M78.844,15.114c0-1.717-0.619-3.208-1.852-4.473c-1.266-1.265-2.742-1.898-4.429-1.898H60.544
	v22.592h2.801v-9.851h6.597l5.647,9.851h3.254l-5.693-9.851c1.597-0.181,2.951-0.889,4.066-2.124
	C78.301,18.155,78.844,16.74,78.844,15.114 M72.563,11.589c0.935,0,1.732,0.346,2.396,1.04c0.721,0.723,1.082,1.551,1.082,2.485
	c0,0.964-0.361,1.808-1.082,2.53c-0.664,0.693-1.461,1.039-2.396,1.039h-9.217v-7.094H72.563 M101.344,8.743h-2.756v13.691
	c0,1.777-0.617,3.281-1.852,4.518c-1.234,1.235-2.727,1.852-4.475,1.852c-1.775,0-3.268-0.616-4.473-1.852
	c-1.234-1.236-1.852-2.74-1.852-4.518V8.743h-2.801v13.691c0,2.53,0.873,4.685,2.619,6.461c1.809,1.837,3.977,2.756,6.506,2.756
	c2.5,0,4.654-0.919,6.461-2.756c1.748-1.776,2.621-3.931,2.621-6.461V8.743 M123.168,12.132c-2.17-2.259-4.789-3.389-7.863-3.389
	h-8.494v22.592h8.494c3.074,0,5.693-1.101,7.863-3.299c2.229-2.229,3.344-4.864,3.344-7.907
	C126.512,16.966,125.396,14.3,123.168,12.132 M115.305,11.589c2.26,0,4.232,0.828,5.92,2.485c1.627,1.656,2.439,3.675,2.439,6.054
	c0,2.259-0.813,4.217-2.439,5.874c-1.688,1.718-3.66,2.574-5.92,2.574h-5.691V11.589H115.305 M140.02,8.743h-3.885l-8.178,22.592
	h2.936l1.537-4.202h11.205l1.582,4.202h2.938L140.02,8.743 M142.596,24.286h-9.082l4.52-12.606L142.596,24.286 M29.188,36.259
	l9.217-16.492L29.143,3.186H9.263L0,19.767l9.217,16.492H29.188 M25.664,9.963c1.748,0.934,3.147,2.229,4.202,3.886l-2.395,1.491
	c-0.753-1.206-1.823-2.169-3.208-2.892c-1.235-0.784-2.621-1.175-4.156-1.175c-2.35,0-4.399,0.874-6.146,2.621
	c-1.686,1.747-2.53,3.825-2.53,6.235v0.452c0.12,2.168,0.964,4.052,2.53,5.647c1.627,1.597,3.51,2.454,5.648,2.574l5.196-5.149
	h-3.163c-1.205-0.361-2.063-1.326-2.575-2.892h10.482v10.437c-1.597-0.452-2.56-1.295-2.892-2.529v-2.848l-5.693,5.74v0.089h-0.045
	h-0.813c-0.994,0-1.943-0.12-2.847-0.362c-1.958-0.511-3.72-1.551-5.286-3.116c-2.139-2.14-3.254-4.669-3.344-7.591v-0.452
	c0-3.194,1.115-5.934,3.344-8.224c2.288-2.258,5-3.388,8.133-3.388C22.064,8.517,23.917,8.999,25.664,9.963"/>
<path fill="#FFFFFF" d="M29.866,13.849c-1.055-1.657-2.455-2.952-4.202-3.886c-1.747-0.965-3.599-1.446-5.557-1.446
	c-3.133,0-5.845,1.13-8.133,3.388c-2.229,2.289-3.344,5.031-3.344,8.224v0.452c0.09,2.921,1.205,5.451,3.344,7.59
	c1.566,1.566,3.327,2.606,5.286,3.117c0.904,0.242,1.853,0.362,2.847,0.362h0.813h0.045v-0.09l5.693-5.739v2.848
	c0.332,1.234,1.294,2.077,2.892,2.529V20.762H19.067c0.512,1.565,1.371,2.53,2.575,2.891h3.163l-5.196,5.15
	c-2.138-0.119-4.021-0.978-5.648-2.574c-1.566-1.597-2.41-3.479-2.53-5.647v-0.452c0-2.41,0.844-4.489,2.53-6.235
	c1.747-1.746,3.796-2.621,6.146-2.621c1.536,0,2.922,0.392,4.156,1.175c1.385,0.723,2.455,1.686,3.208,2.891L29.866,13.849z"/>
</svg>
